# xmcd
#
# Track frame offsets: 
#        150
#        18635
#        34317
#        55162
#        75540
#        100827
#        120192
#        135235
#        149495
#        164882
#
# Disc length: 2462 seconds
#
# Revision: 4
# Processed by: cddbd v1.5.2PL0 Copyright (c) Steve Scherf et al.
# Submitted via: ExactAudioCopy v0.90b4
#
DISCID=82099c0a
DTITLE=Phoebe Snow - The Best Of Phoebe Snow
DYEAR=1981
DGENRE=Blues
TTITLE0=Two-Fisted Love
TTITLE1=All Over
TTITLE2=Poetry Man
TTITLE3=Teach Me Tonight
TTITLE4=Don't Let Me Down
TTITLE5=Shakey Ground
TTITLE6=Love Makes A Woman
TTITLE7=Never Letting Go
TTITLE8=Every Night
TTITLE9=Harpo's Blues
EXTD=ID3G:   0
EXTT0=
EXTT1=
EXTT2=
EXTT3=
EXTT4=
EXTT5=
EXTT6=
EXTT7=
EXTT8=
EXTT9=
PLAYORDER=
